<?xml version="1.0" encoding="utf-8"?>
<mlt LC_NUMERIC="fr_FR" version="6.11.0" title="Shotcut version 18.09.16" producer="main_bin">
  <profile description="automatic" width="1024" height="576" progressive="1" sample_aspect_num="1" sample_aspect_den="1" display_aspect_num="1024" display_aspect_den="576" frame_rate_num="30" frame_rate_den="1" colorspace="601"/>
  <playlist id="main_bin">
    <property name="xml_retain">1</property>
  </playlist>
  <producer id="black" in="00:00:00,000" out="00:04:20,433">
    <property name="length">7814</property>
    <property name="eof">pause</property>
    <property name="resource">black</property>
    <property name="aspect_ratio">1</property>
    <property name="mlt_service">color</property>
    <property name="set.test_audio">0</property>
  </producer>
  <playlist id="background">
    <entry producer="black" in="00:00:00,000" out="00:04:20,433"/>
  </playlist>
  <producer id="producer0" title="Anonymous Submission" in="00:00:00,000" out="00:05:33,333">
    <property name="length">00:05:33:11</property>
    <property name="eof">pause</property>
    <property name="resource">D:/obs-studio/movies/2019-04-15_15-44-29.mp4</property>
    <property name="audio_index">-1</property>
    <property name="video_index">0</property>
    <property name="mute_on_pause">0</property>
    <property name="mlt_service">avformat-novalidate</property>
    <property name="seekable">1</property>
    <property name="aspect_ratio">1</property>
    <property name="shotcut:hash">c7c68dbcce77fba71cc30d71290d37d3</property>
    <property name="ignore_points">0</property>
    <property name="shotcut:caption">2019-04-15_15-44-29.mp4</property>
    <property name="shotcut:detail">D:\obs-studio\movies\2019-04-15_15-44-29.mp4</property>
    <property name="shotcut:skipConvert">1</property>
    <property name="global_feed">1</property>
    <property name="xml">was here</property>
    <filter id="filter0" in="00:00:03,000" out="00:00:39,033">
      <property name="start">1</property>
      <property name="level">00:00:00,000=0;00:00:00,967=1</property>
      <property name="mlt_service">brightness</property>
      <property name="shotcut:filter">fadeInBrightness</property>
      <property name="alpha">1</property>
      <property name="shotcut:animIn">00:00:01,000</property>
    </filter>
  </producer>
  <producer id="producer1" title="Anonymous Submission" in="00:00:00,000" out="00:05:33,333">
    <property name="length">00:05:33:11</property>
    <property name="eof">pause</property>
    <property name="resource">D:/obs-studio/movies/2019-04-15_15-44-29.mp4</property>
    <property name="audio_index">-1</property>
    <property name="video_index">0</property>
    <property name="mute_on_pause">0</property>
    <property name="mlt_service">avformat-novalidate</property>
    <property name="seekable">1</property>
    <property name="aspect_ratio">1</property>
    <property name="shotcut:hash">c7c68dbcce77fba71cc30d71290d37d3</property>
    <property name="ignore_points">0</property>
    <property name="shotcut:caption">2019-04-15_15-44-29.mp4</property>
    <property name="shotcut:detail">D:\obs-studio\movies\2019-04-15_15-44-29.mp4</property>
    <property name="shotcut:skipConvert">1</property>
    <property name="global_feed">1</property>
    <property name="xml">was here</property>
    <filter id="filter1" in="00:00:39,067" out="00:00:42,600">
      <property name="background">colour:0</property>
      <property name="mlt_service">affine</property>
      <property name="shotcut:filter">affineSizePosition</property>
      <property name="transition.fill">1</property>
      <property name="transition.distort">0</property>
      <property name="transition.rect">00:00:00,000=0 0 1024 576 1;00:00:01,067=0 0 2000 1000 1;00:00:02,967=0 0 2000 1000 1;00:00:03,533=0 0 1024 576 1</property>
      <property name="transition.valign">top</property>
      <property name="transition.halign">left</property>
      <property name="shotcut:animIn">00:00:01,100</property>
      <property name="shotcut:animOut">00:00:00,600</property>
      <property name="transition.threads">0</property>
    </filter>
  </producer>
  <producer id="producer2" title="Anonymous Submission" in="00:00:00,000" out="00:05:33,333">
    <property name="length">00:05:33:11</property>
    <property name="eof">pause</property>
    <property name="resource">D:/obs-studio/movies/2019-04-15_15-44-29.mp4</property>
    <property name="audio_index">-1</property>
    <property name="video_index">0</property>
    <property name="mute_on_pause">0</property>
    <property name="mlt_service">avformat-novalidate</property>
    <property name="seekable">1</property>
    <property name="aspect_ratio">1</property>
    <property name="shotcut:hash">c7c68dbcce77fba71cc30d71290d37d3</property>
    <property name="ignore_points">0</property>
    <property name="shotcut:caption">2019-04-15_15-44-29.mp4</property>
    <property name="shotcut:detail">D:\obs-studio\movies\2019-04-15_15-44-29.mp4</property>
    <property name="shotcut:skipConvert">1</property>
    <property name="global_feed">1</property>
    <property name="xml">was here</property>
  </producer>
  <producer id="producer3" title="Anonymous Submission" in="00:00:00,000" out="00:05:33,333">
    <property name="length">00:05:33:11</property>
    <property name="eof">pause</property>
    <property name="resource">D:/obs-studio/movies/2019-04-15_15-44-29.mp4</property>
    <property name="audio_index">-1</property>
    <property name="video_index">0</property>
    <property name="mute_on_pause">0</property>
    <property name="mlt_service">avformat-novalidate</property>
    <property name="seekable">1</property>
    <property name="aspect_ratio">1</property>
    <property name="shotcut:hash">c7c68dbcce77fba71cc30d71290d37d3</property>
    <property name="ignore_points">0</property>
    <property name="shotcut:caption">2019-04-15_15-44-29.mp4</property>
    <property name="shotcut:detail">D:\obs-studio\movies\2019-04-15_15-44-29.mp4</property>
    <property name="shotcut:skipConvert">1</property>
    <property name="global_feed">1</property>
    <property name="xml">was here</property>
    <filter id="filter2" in="00:00:47,533" out="00:01:11,267">
      <property name="mlt_service">crop</property>
      <property name="center">0</property>
      <property name="center_bias">0</property>
      <property name="top">9</property>
      <property name="bottom">7</property>
      <property name="left">79</property>
      <property name="right">146</property>
    </filter>
  </producer>
  <producer id="producer4" title="Anonymous Submission" in="00:00:00,000" out="00:05:33,333">
    <property name="length">00:05:33:11</property>
    <property name="eof">pause</property>
    <property name="resource">D:/obs-studio/movies/2019-04-15_15-44-29.mp4</property>
    <property name="audio_index">-1</property>
    <property name="video_index">0</property>
    <property name="mute_on_pause">0</property>
    <property name="mlt_service">avformat-novalidate</property>
    <property name="seekable">1</property>
    <property name="aspect_ratio">1</property>
    <property name="shotcut:hash">c7c68dbcce77fba71cc30d71290d37d3</property>
    <property name="ignore_points">0</property>
    <property name="shotcut:caption">2019-04-15_15-44-29.mp4</property>
    <property name="shotcut:detail">D:\obs-studio\movies\2019-04-15_15-44-29.mp4</property>
    <property name="shotcut:skipConvert">1</property>
    <property name="global_feed">1</property>
    <property name="xml">was here</property>
    <filter id="filter3" in="00:00:47,533" out="00:02:43,300">
      <property name="mlt_service">crop</property>
      <property name="center">0</property>
      <property name="center_bias">0</property>
      <property name="top">9</property>
      <property name="bottom">7</property>
      <property name="left">79</property>
      <property name="right">146</property>
    </filter>
    <filter id="filter4" in="00:01:20,300" out="00:01:21,933">
      <property name="argument">*Le Jeu est ralenti à cause de l'enregistrement de la vidéo*</property>
      <property name="geometry">97 329 803 33 1</property>
      <property name="family">Verdana</property>
      <property name="size">576</property>
      <property name="weight">500</property>
      <property name="style">normal</property>
      <property name="fgcolour">#ffffffff</property>
      <property name="bgcolour">#00000000</property>
      <property name="olcolour">#ff000000</property>
      <property name="pad">0</property>
      <property name="halign">center</property>
      <property name="valign">bottom</property>
      <property name="outline">0</property>
      <property name="mlt_service">dynamictext</property>
      <property name="shotcut:filter">dynamicText</property>
      <property name="shotcut:usePointSize">0</property>
      <property name="shotcut:animIn">00:00:00,000</property>
      <property name="shotcut:animOut">00:00:00,000</property>
    </filter>
  </producer>
  <producer id="producer5" title="Anonymous Submission" in="00:00:00,000" out="00:01:51,067">
    <property name="length">3333</property>
    <property name="eof">pause</property>
    <property name="resource">3:D:\obs-studio\movies\2019-04-15_15-44-29.mp4</property>
    <property name="aspect_ratio">1</property>
    <property name="seekable">1</property>
    <property name="audio_index">-1</property>
    <property name="video_index">0</property>
    <property name="mute_on_pause">1</property>
    <property name="warp_speed">3</property>
    <property name="warp_resource">D:\obs-studio\movies\2019-04-15_15-44-29.mp4</property>
    <property name="mlt_service">timewarp</property>
    <property name="shotcut:producer">avformat</property>
    <property name="video_delay">0</property>
    <property name="shotcut:hash">c7c68dbcce77fba71cc30d71290d37d3</property>
    <property name="shotcut:skipConvert">1</property>
    <property name="global_feed">1</property>
    <property name="xml">was here</property>
    <filter id="filter5" in="00:00:15,867" out="00:01:12,000">
      <property name="mlt_service">crop</property>
      <property name="center">0</property>
      <property name="center_bias">0</property>
      <property name="top">9</property>
      <property name="bottom">7</property>
      <property name="left">79</property>
      <property name="right">146</property>
    </filter>
  </producer>
  <producer id="producer6" title="Anonymous Submission" in="00:00:00,000" out="00:05:33,333">
    <property name="length">00:05:33:11</property>
    <property name="eof">pause</property>
    <property name="resource">D:/obs-studio/movies/2019-04-15_15-44-29.mp4</property>
    <property name="audio_index">-1</property>
    <property name="video_index">0</property>
    <property name="mute_on_pause">0</property>
    <property name="mlt_service">avformat-novalidate</property>
    <property name="seekable">1</property>
    <property name="aspect_ratio">1</property>
    <property name="shotcut:hash">c7c68dbcce77fba71cc30d71290d37d3</property>
    <property name="ignore_points">0</property>
    <property name="shotcut:caption">2019-04-15_15-44-29.mp4</property>
    <property name="shotcut:detail">D:\obs-studio\movies\2019-04-15_15-44-29.mp4</property>
    <property name="shotcut:skipConvert">1</property>
    <property name="global_feed">1</property>
    <property name="xml">was here</property>
    <filter id="filter6" in="00:00:47,533" out="00:04:13,367">
      <property name="mlt_service">crop</property>
      <property name="center">0</property>
      <property name="center_bias">0</property>
      <property name="top">9</property>
      <property name="bottom">7</property>
      <property name="left">79</property>
      <property name="right">146</property>
    </filter>
  </producer>
  <producer id="producer7" title="Anonymous Submission" in="00:00:00,000" out="00:01:51,100">
    <property name="length">3334</property>
    <property name="eof">pause</property>
    <property name="resource">3:D:\obs-studio\movies\2019-04-15_15-44-29.mp4</property>
    <property name="aspect_ratio">1</property>
    <property name="seekable">1</property>
    <property name="audio_index">-1</property>
    <property name="video_index">0</property>
    <property name="mute_on_pause">1</property>
    <property name="warp_speed">3</property>
    <property name="warp_resource">D:\obs-studio\movies\2019-04-15_15-44-29.mp4</property>
    <property name="mlt_service">timewarp</property>
    <property name="shotcut:producer">avformat</property>
    <property name="video_delay">0</property>
    <property name="shotcut:hash">c7c68dbcce77fba71cc30d71290d37d3</property>
    <property name="shotcut:skipConvert">1</property>
    <property name="global_feed">1</property>
    <property name="xml">was here</property>
    <filter id="filter7" in="00:00:15,833" out="00:01:35,567">
      <property name="mlt_service">crop</property>
      <property name="center">0</property>
      <property name="center_bias">0</property>
      <property name="top">9</property>
      <property name="bottom">7</property>
      <property name="left">79</property>
      <property name="right">146</property>
    </filter>
  </producer>
  <producer id="producer8" title="Anonymous Submission" in="00:00:00,000" out="00:05:33,333">
    <property name="length">00:05:33:11</property>
    <property name="eof">pause</property>
    <property name="resource">D:/obs-studio/movies/2019-04-15_15-44-29.mp4</property>
    <property name="audio_index">-1</property>
    <property name="video_index">0</property>
    <property name="mute_on_pause">0</property>
    <property name="mlt_service">avformat-novalidate</property>
    <property name="seekable">1</property>
    <property name="aspect_ratio">1</property>
    <property name="shotcut:hash">c7c68dbcce77fba71cc30d71290d37d3</property>
    <property name="ignore_points">0</property>
    <property name="shotcut:caption">2019-04-15_15-44-29.mp4</property>
    <property name="shotcut:detail">D:\obs-studio\movies\2019-04-15_15-44-29.mp4</property>
    <property name="shotcut:skipConvert">1</property>
    <property name="global_feed">1</property>
    <property name="xml">was here</property>
    <filter id="filter8" in="00:00:47,533" out="00:05:24,000">
      <property name="mlt_service">crop</property>
      <property name="center">0</property>
      <property name="center_bias">0</property>
      <property name="top">9</property>
      <property name="bottom">7</property>
      <property name="left">79</property>
      <property name="right">146</property>
    </filter>
    <filter id="filter9" in="00:04:46,733" out="00:05:33,333">
      <property name="start">1</property>
      <property name="level">00:00:44,633=1;00:00:46,600=0</property>
      <property name="mlt_service">brightness</property>
      <property name="shotcut:filter">fadeOutBrightness</property>
      <property name="alpha">1</property>
      <property name="shotcut:animOut">60</property>
    </filter>
  </producer>
  <playlist id="playlist0">
    <property name="shotcut:video">1</property>
    <property name="shotcut:name">V1</property>
    <entry producer="producer0" in="00:00:03,000" out="00:00:39,033"/>
    <entry producer="producer1" in="00:00:39,067" out="00:00:42,600"/>
    <entry producer="producer2" in="00:00:42,633" out="00:00:43,200"/>
    <entry producer="producer3" in="00:00:46,667" out="00:01:11,267"/>
    <entry producer="producer4" in="00:01:16,033" out="00:02:43,300"/>
    <entry producer="producer5" in="00:00:54,500" out="00:01:12,000"/>
    <entry producer="producer6" in="00:03:40,433" out="00:04:13,367"/>
    <entry producer="producer7" in="00:01:24,467" out="00:01:35,567"/>
    <entry producer="producer8" in="00:04:46,733" out="00:05:33,333"/>
  </playlist>
  <producer id="producer9" title="Anonymous Submission" in="00:00:00,000" out="00:05:33,333">
    <property name="length">00:05:33:11</property>
    <property name="eof">pause</property>
    <property name="resource">D:/obs-studio/movies/2019-04-15_15-44-29.mp4</property>
    <property name="audio_index">1</property>
    <property name="video_index">0</property>
    <property name="mute_on_pause">0</property>
    <property name="mlt_service">avformat-novalidate</property>
    <property name="seekable">1</property>
    <property name="aspect_ratio">1</property>
    <property name="shotcut:hash">c7c68dbcce77fba71cc30d71290d37d3</property>
    <property name="ignore_points">0</property>
    <property name="shotcut:caption">2019-04-15_15-44-29.mp4</property>
    <property name="shotcut:detail">D:\obs-studio\movies\2019-04-15_15-44-29.mp4</property>
    <property name="shotcut:skipConvert">1</property>
    <property name="global_feed">1</property>
    <property name="xml">was here</property>
  </producer>
  <producer id="producer10" title="Anonymous Submission" in="00:00:00,000" out="00:05:33,333">
    <property name="length">00:05:33:11</property>
    <property name="eof">pause</property>
    <property name="resource">D:/obs-studio/movies/2019-04-15_15-44-29.mp4</property>
    <property name="audio_index">1</property>
    <property name="video_index">0</property>
    <property name="mute_on_pause">0</property>
    <property name="mlt_service">avformat-novalidate</property>
    <property name="seekable">1</property>
    <property name="aspect_ratio">1</property>
    <property name="shotcut:hash">c7c68dbcce77fba71cc30d71290d37d3</property>
    <property name="ignore_points">0</property>
    <property name="shotcut:caption">2019-04-15_15-44-29.mp4</property>
    <property name="shotcut:detail">D:\obs-studio\movies\2019-04-15_15-44-29.mp4</property>
    <property name="shotcut:skipConvert">1</property>
    <property name="global_feed">1</property>
    <property name="xml">was here</property>
  </producer>
  <producer id="producer11" title="Anonymous Submission" in="00:00:00,000" out="00:05:33,333">
    <property name="length">00:05:33:11</property>
    <property name="eof">pause</property>
    <property name="resource">D:/obs-studio/movies/2019-04-15_15-44-29.mp4</property>
    <property name="audio_index">1</property>
    <property name="video_index">0</property>
    <property name="mute_on_pause">0</property>
    <property name="mlt_service">avformat-novalidate</property>
    <property name="seekable">1</property>
    <property name="aspect_ratio">1</property>
    <property name="shotcut:hash">c7c68dbcce77fba71cc30d71290d37d3</property>
    <property name="ignore_points">0</property>
    <property name="shotcut:caption">2019-04-15_15-44-29.mp4</property>
    <property name="shotcut:detail">D:\obs-studio\movies\2019-04-15_15-44-29.mp4</property>
    <property name="shotcut:skipConvert">1</property>
    <property name="global_feed">1</property>
    <property name="xml">was here</property>
  </producer>
  <producer id="producer12" title="Anonymous Submission" in="00:00:00,000" out="00:01:51,067">
    <property name="length">3333</property>
    <property name="eof">pause</property>
    <property name="resource">3:D:\obs-studio\movies\2019-04-15_15-44-29.mp4</property>
    <property name="aspect_ratio">1</property>
    <property name="seekable">1</property>
    <property name="audio_index">1</property>
    <property name="video_index">0</property>
    <property name="mute_on_pause">1</property>
    <property name="warp_speed">3</property>
    <property name="warp_resource">D:\obs-studio\movies\2019-04-15_15-44-29.mp4</property>
    <property name="mlt_service">timewarp</property>
    <property name="shotcut:producer">avformat</property>
    <property name="video_delay">0</property>
    <property name="shotcut:hash">c7c68dbcce77fba71cc30d71290d37d3</property>
    <property name="shotcut:skipConvert">1</property>
    <property name="global_feed">1</property>
    <property name="xml">was here</property>
  </producer>
  <producer id="producer13" title="Anonymous Submission" in="00:00:00,000" out="00:05:33,333">
    <property name="length">00:05:33:11</property>
    <property name="eof">pause</property>
    <property name="resource">D:/obs-studio/movies/2019-04-15_15-44-29.mp4</property>
    <property name="audio_index">1</property>
    <property name="video_index">0</property>
    <property name="mute_on_pause">0</property>
    <property name="mlt_service">avformat-novalidate</property>
    <property name="seekable">1</property>
    <property name="aspect_ratio">1</property>
    <property name="shotcut:hash">c7c68dbcce77fba71cc30d71290d37d3</property>
    <property name="ignore_points">0</property>
    <property name="shotcut:caption">2019-04-15_15-44-29.mp4</property>
    <property name="shotcut:detail">D:\obs-studio\movies\2019-04-15_15-44-29.mp4</property>
    <property name="shotcut:skipConvert">1</property>
    <property name="global_feed">1</property>
    <property name="xml">was here</property>
  </producer>
  <producer id="producer14" title="Anonymous Submission" in="00:00:00,000" out="00:01:51,100">
    <property name="length">3334</property>
    <property name="eof">pause</property>
    <property name="resource">3:D:\obs-studio\movies\2019-04-15_15-44-29.mp4</property>
    <property name="aspect_ratio">1</property>
    <property name="seekable">1</property>
    <property name="audio_index">1</property>
    <property name="video_index">0</property>
    <property name="mute_on_pause">1</property>
    <property name="warp_speed">3</property>
    <property name="warp_resource">D:\obs-studio\movies\2019-04-15_15-44-29.mp4</property>
    <property name="mlt_service">timewarp</property>
    <property name="shotcut:producer">avformat</property>
    <property name="video_delay">0</property>
    <property name="shotcut:hash">c7c68dbcce77fba71cc30d71290d37d3</property>
    <property name="shotcut:skipConvert">1</property>
    <property name="global_feed">1</property>
    <property name="xml">was here</property>
  </producer>
  <producer id="producer15" title="Anonymous Submission" in="00:00:00,000" out="00:05:33,333">
    <property name="length">00:05:33:11</property>
    <property name="eof">pause</property>
    <property name="resource">D:/obs-studio/movies/2019-04-15_15-44-29.mp4</property>
    <property name="audio_index">1</property>
    <property name="video_index">0</property>
    <property name="mute_on_pause">0</property>
    <property name="mlt_service">avformat-novalidate</property>
    <property name="seekable">1</property>
    <property name="aspect_ratio">1</property>
    <property name="shotcut:hash">c7c68dbcce77fba71cc30d71290d37d3</property>
    <property name="ignore_points">0</property>
    <property name="shotcut:caption">2019-04-15_15-44-29.mp4</property>
    <property name="shotcut:detail">D:\obs-studio\movies\2019-04-15_15-44-29.mp4</property>
    <property name="shotcut:skipConvert">1</property>
    <property name="global_feed">1</property>
    <property name="xml">was here</property>
  </producer>
  <playlist id="playlist1">
    <property name="shotcut:audio">1</property>
    <property name="shotcut:name">A1</property>
    <entry producer="producer9" in="00:00:03,000" out="00:00:43,200"/>
    <entry producer="producer10" in="00:00:46,633" out="00:01:11,233"/>
    <entry producer="producer11" in="00:01:16,000" out="00:02:43,267"/>
    <entry producer="producer12" in="00:00:54,433" out="00:01:12,000"/>
    <entry producer="producer13" in="00:03:40,467" out="00:04:13,333"/>
    <entry producer="producer14" in="00:01:24,467" out="00:01:35,567"/>
    <entry producer="producer15" in="00:04:46,700" out="00:05:33,333"/>
  </playlist>
  <producer id="producer16" title="Anonymous Submission" in="00:00:00,000" out="03:59:59,967">
    <property name="length">04:00:00:00</property>
    <property name="eof">pause</property>
    <property name="resource">Images/cpp.png</property>
    <property name="ttl">1</property>
    <property name="aspect_ratio">1</property>
    <property name="progressive">1</property>
    <property name="seekable">1</property>
    <property name="mlt_service">qimage</property>
    <property name="shotcut:hash">f278be7973516129af9e64d45a0c6f4d</property>
    <property name="ignore_points">0</property>
    <property name="global_feed">1</property>
    <property name="xml">was here</property>
    <filter id="filter10" out="00:00:05,300">
      <property name="background">colour:0</property>
      <property name="mlt_service">affine</property>
      <property name="shotcut:filter">affineRotate</property>
      <property name="transition.fix_rotate_x">0</property>
      <property name="transition.scale_x">2,38095</property>
      <property name="transition.ox">1565</property>
      <property name="transition.oy">0</property>
      <property name="transition.threads">0</property>
      <property name="transition.scale_y">2,38095</property>
    </filter>
    <filter id="filter11" out="00:00:05,300">
      <property name="start">1</property>
      <property name="level">1</property>
      <property name="mlt_service">brightness</property>
      <property name="shotcut:filter">fadeInBrightness</property>
      <property name="alpha">00:00:00,000=0;00:00:00,133=1</property>
      <property name="shotcut:animIn">00:00:00,167</property>
      <property name="transition.fix_rotate_x">00:00:00,000=0;00:00:00,133=0</property>
      <property name="transition.scale_x">00:00:00,000=1;00:00:00,133=2,38095</property>
      <property name="transition.scale_y">00:00:00,000=1;00:00:00,133=2,38095</property>
      <property name="disable">0</property>
    </filter>
    <filter id="filter12" out="00:00:05,300">
      <property name="start">1</property>
      <property name="level">1</property>
      <property name="mlt_service">brightness</property>
      <property name="shotcut:filter">fadeOutBrightness</property>
      <property name="alpha">00:00:05,167=1;00:00:05,300=0</property>
      <property name="shotcut:animOut">00:00:00,167</property>
      <property name="disable">0</property>
      <property name="transition.fix_rotate_x">00:00:05,167=0;00:00:05,300=0</property>
      <property name="transition.scale_x">00:00:05,167=2,38095;00:00:05,300=1</property>
      <property name="transition.scale_y">00:00:05,167=2,38095;00:00:05,300=1</property>
    </filter>
  </producer>
  <playlist id="playlist2">
    <property name="shotcut:video">1</property>
    <property name="shotcut:name">V2</property>
    <blank length="00:00:24,500"/>
    <entry producer="producer16" in="00:00:00,000" out="00:00:05,300"/>
  </playlist>
  <producer id="producer17" title="Anonymous Submission" in="00:00:00,000" out="03:59:59,967">
    <property name="length">04:00:00:00</property>
    <property name="eof">pause</property>
    <property name="resource">Images/Mob 1.png</property>
    <property name="ttl">1</property>
    <property name="aspect_ratio">1</property>
    <property name="progressive">1</property>
    <property name="seekable">1</property>
    <property name="mlt_service">qimage</property>
    <property name="shotcut:hash">5bb347474671d08010ab7886c29e22af</property>
    <property name="ignore_points">0</property>
    <property name="global_feed">1</property>
    <property name="xml">was here</property>
    <filter id="filter13" out="00:00:02,367">
      <property name="background">colour:0</property>
      <property name="mlt_service">affine</property>
      <property name="shotcut:filter">affineSizePosition</property>
      <property name="transition.fill">1</property>
      <property name="transition.distort">0</property>
      <property name="transition.rect">221 11 175 127 1</property>
      <property name="transition.valign">top</property>
      <property name="transition.halign">left</property>
      <property name="shotcut:animIn">00:00:00,000</property>
      <property name="shotcut:animOut">00:00:00,000</property>
      <property name="transition.threads">0</property>
    </filter>
    <filter id="filter14" out="00:00:02,367">
      <property name="argument">= 10 points</property>
      <property name="geometry">412 45 355 82 1</property>
      <property name="family">Verdana</property>
      <property name="size">576</property>
      <property name="weight">500</property>
      <property name="style">normal</property>
      <property name="fgcolour">#ffffffff</property>
      <property name="bgcolour">#00000000</property>
      <property name="olcolour">#ff000000</property>
      <property name="pad">0</property>
      <property name="halign">center</property>
      <property name="valign">bottom</property>
      <property name="outline">0</property>
      <property name="mlt_service">dynamictext</property>
      <property name="shotcut:filter">dynamicText</property>
      <property name="shotcut:usePointSize">0</property>
      <property name="shotcut:animIn">00:00:00,000</property>
      <property name="shotcut:animOut">00:00:00,000</property>
    </filter>
    <filter id="filter15" out="00:00:02,367">
      <property name="start">1</property>
      <property name="level">1</property>
      <property name="mlt_service">brightness</property>
      <property name="shotcut:filter">fadeInBrightness</property>
      <property name="alpha">00:00:00,000=0;00:00:00,133=1</property>
      <property name="shotcut:animIn">00:00:00,167</property>
    </filter>
    <filter id="filter16" out="00:00:02,367">
      <property name="start">1</property>
      <property name="level">1</property>
      <property name="mlt_service">brightness</property>
      <property name="shotcut:filter">fadeOutBrightness</property>
      <property name="alpha">00:00:02,233=1;00:00:02,367=0</property>
      <property name="shotcut:animOut">00:00:00,167</property>
    </filter>
  </producer>
  <producer id="producer18" title="Anonymous Submission" in="00:00:00,000" out="03:59:59,967">
    <property name="length">04:00:00:00</property>
    <property name="eof">pause</property>
    <property name="resource">Images/Mob 2.png</property>
    <property name="ttl">1</property>
    <property name="aspect_ratio">1</property>
    <property name="progressive">1</property>
    <property name="seekable">1</property>
    <property name="mlt_service">qimage</property>
    <property name="shotcut:hash">c5a4d3d53f23b3267b155e1f6ce6cd81</property>
    <property name="ignore_points">0</property>
    <property name="global_feed">1</property>
    <property name="xml">was here</property>
    <filter id="filter17" out="00:00:02,100">
      <property name="background">colour:0</property>
      <property name="mlt_service">affine</property>
      <property name="shotcut:filter">affineSizePosition</property>
      <property name="transition.fill">1</property>
      <property name="transition.distort">0</property>
      <property name="transition.rect">211 11 175 116 1</property>
      <property name="transition.valign">top</property>
      <property name="transition.halign">left</property>
      <property name="shotcut:animIn">00:00:00,000</property>
      <property name="shotcut:animOut">00:00:00,000</property>
      <property name="transition.threads">0</property>
    </filter>
    <filter id="filter18" out="00:00:02,100">
      <property name="argument">= 20 points</property>
      <property name="geometry">412 45 355 82 1</property>
      <property name="family">Verdana</property>
      <property name="size">576</property>
      <property name="weight">500</property>
      <property name="style">normal</property>
      <property name="fgcolour">#ffffffff</property>
      <property name="bgcolour">#00000000</property>
      <property name="olcolour">#ff000000</property>
      <property name="pad">0</property>
      <property name="halign">center</property>
      <property name="valign">bottom</property>
      <property name="outline">0</property>
      <property name="mlt_service">dynamictext</property>
      <property name="shotcut:filter">dynamicText</property>
      <property name="shotcut:usePointSize">0</property>
      <property name="shotcut:animIn">00:00:00,000</property>
      <property name="shotcut:animOut">00:00:00,000</property>
    </filter>
    <filter id="filter19" out="00:00:02,100">
      <property name="start">1</property>
      <property name="level">1</property>
      <property name="mlt_service">brightness</property>
      <property name="shotcut:filter">fadeInBrightness</property>
      <property name="alpha">00:00:00,000=0;00:00:00,133=1</property>
      <property name="shotcut:animIn">00:00:00,167</property>
    </filter>
    <filter id="filter20" out="00:00:02,100">
      <property name="start">1</property>
      <property name="level">1</property>
      <property name="mlt_service">brightness</property>
      <property name="shotcut:filter">fadeOutBrightness</property>
      <property name="alpha">00:00:01,967=1;00:00:02,100=0</property>
      <property name="shotcut:animOut">00:00:00,167</property>
      <property name="transition.rect">00:00:01,867=0 0 0 0 1;00:00:02,100=0 0 0 0 1</property>
    </filter>
  </producer>
  <producer id="producer19" title="Anonymous Submission" in="00:00:00,000" out="03:59:59,967">
    <property name="length">04:00:00:00</property>
    <property name="eof">pause</property>
    <property name="resource">Images/Mob 3.png</property>
    <property name="ttl">1</property>
    <property name="aspect_ratio">1</property>
    <property name="progressive">1</property>
    <property name="seekable">1</property>
    <property name="mlt_service">qimage</property>
    <property name="shotcut:hash">aa3971eec07b6d9c05c9115a793bad7f</property>
    <property name="ignore_points">0</property>
    <property name="global_feed">1</property>
    <property name="xml">was here</property>
    <filter id="filter21" out="00:00:01,900">
      <property name="background">colour:0</property>
      <property name="mlt_service">affine</property>
      <property name="shotcut:filter">affineSizePosition</property>
      <property name="transition.fill">1</property>
      <property name="transition.distort">0</property>
      <property name="transition.rect">245 15 126 126 1</property>
      <property name="transition.valign">top</property>
      <property name="transition.halign">left</property>
      <property name="shotcut:animIn">00:00:00,000</property>
      <property name="shotcut:animOut">00:00:00,000</property>
      <property name="transition.threads">0</property>
      <property name="geometry">412 45 355 82 1</property>
    </filter>
    <filter id="filter22" out="00:00:01,900">
      <property name="argument">= 40 points</property>
      <property name="geometry">412 45 355 82 1</property>
      <property name="family">Verdana</property>
      <property name="size">576</property>
      <property name="weight">500</property>
      <property name="style">normal</property>
      <property name="fgcolour">#ffffffff</property>
      <property name="bgcolour">#00000000</property>
      <property name="olcolour">#ff000000</property>
      <property name="pad">0</property>
      <property name="halign">center</property>
      <property name="valign">bottom</property>
      <property name="outline">0</property>
      <property name="mlt_service">dynamictext</property>
      <property name="shotcut:filter">dynamicText</property>
      <property name="shotcut:usePointSize">0</property>
      <property name="shotcut:animIn">00:00:00,000</property>
      <property name="shotcut:animOut">00:00:00,000</property>
    </filter>
    <filter id="filter23" out="00:00:01,900">
      <property name="start">1</property>
      <property name="level">1</property>
      <property name="mlt_service">brightness</property>
      <property name="shotcut:filter">fadeInBrightness</property>
      <property name="alpha">00:00:00,000=0;00:00:00,133=1</property>
      <property name="shotcut:animIn">00:00:00,167</property>
    </filter>
    <filter id="filter24" out="00:00:01,900">
      <property name="start">1</property>
      <property name="level">1</property>
      <property name="mlt_service">brightness</property>
      <property name="shotcut:filter">fadeOutBrightness</property>
      <property name="alpha">00:00:01,767=1;00:00:01,900=0</property>
      <property name="shotcut:animOut">00:00:00,167</property>
    </filter>
  </producer>
  <playlist id="playlist3">
    <property name="shotcut:video">1</property>
    <property name="shotcut:name">V3</property>
    <blank length="00:01:45,600"/>
    <entry producer="producer17" in="00:00:00,000" out="00:00:02,367"/>
    <blank length="00:00:01,600"/>
    <entry producer="producer18" in="00:00:00,000" out="00:00:02,100"/>
    <blank length="00:00:00,800"/>
    <entry producer="producer19" in="00:00:00,000" out="00:00:01,900"/>
  </playlist>
  <producer id="producer20" title="Anonymous Submission" in="00:00:00,000" out="03:59:59,967">
    <property name="length">04:00:00:00</property>
    <property name="eof">pause</property>
    <property name="resource">Images/sfml-logo-big.png</property>
    <property name="ttl">1</property>
    <property name="aspect_ratio">1</property>
    <property name="progressive">1</property>
    <property name="seekable">1</property>
    <property name="mlt_service">qimage</property>
    <property name="shotcut:hash">23e0a439688ffcc81add0ddf10cfea78</property>
    <property name="ignore_points">0</property>
    <property name="global_feed">1</property>
    <property name="xml">was here</property>
    <filter id="filter25" out="00:00:02,900">
      <property name="background">colour:0</property>
      <property name="mlt_service">affine</property>
      <property name="shotcut:filter">affineRotate</property>
      <property name="transition.fix_rotate_x">0</property>
      <property name="transition.scale_x">1,69779</property>
      <property name="transition.ox">-258</property>
      <property name="transition.oy">0</property>
      <property name="transition.threads">0</property>
      <property name="transition.scale_y">1,69779</property>
    </filter>
    <filter id="filter26" out="00:00:02,900">
      <property name="start">1</property>
      <property name="level">1</property>
      <property name="mlt_service">brightness</property>
      <property name="shotcut:filter">fadeInBrightness</property>
      <property name="alpha">00:00:00,000=0;00:00:00,133=1</property>
      <property name="shotcut:animIn">00:00:00,167</property>
    </filter>
    <filter id="filter27" out="00:00:02,900">
      <property name="start">1</property>
      <property name="level">1</property>
      <property name="mlt_service">brightness</property>
      <property name="shotcut:filter">fadeOutBrightness</property>
      <property name="alpha">00:00:02,767=1;00:00:02,900=0</property>
      <property name="shotcut:animOut">00:00:00,167</property>
      <property name="disable">0</property>
    </filter>
  </producer>
  <playlist id="playlist4">
    <property name="shotcut:video">1</property>
    <property name="shotcut:name">V4</property>
    <blank length="00:00:26,900"/>
    <entry producer="producer20" in="00:00:00,000" out="00:00:02,900"/>
  </playlist>
  <tractor id="tractor0" title="Shotcut version 18.09.16" global_feed="1" in="00:00:00,000" out="00:04:20,433">
    <property name="shotcut">1</property>
    <property name="shotcut:scaleFactor">0,135</property>
    <property name="shotcut:projectAudioChannels">2</property>
    <track producer="background"/>
    <track producer="playlist0"/>
    <track producer="playlist1" hide="video"/>
    <track producer="playlist2"/>
    <track producer="playlist3"/>
    <track producer="playlist4"/>
    <transition id="transition0">
      <property name="a_track">0</property>
      <property name="b_track">1</property>
      <property name="mlt_service">mix</property>
      <property name="always_active">1</property>
      <property name="sum">1</property>
    </transition>
    <transition id="transition1">
      <property name="a_track">0</property>
      <property name="b_track">1</property>
      <property name="version">0,9</property>
      <property name="mlt_service">frei0r.cairoblend</property>
      <property name="disable">1</property>
    </transition>
    <transition id="transition2">
      <property name="a_track">0</property>
      <property name="b_track">2</property>
      <property name="mlt_service">mix</property>
      <property name="always_active">1</property>
      <property name="sum">1</property>
    </transition>
    <transition id="transition3">
      <property name="a_track">0</property>
      <property name="b_track">3</property>
      <property name="mlt_service">mix</property>
      <property name="always_active">1</property>
      <property name="sum">1</property>
    </transition>
    <transition id="transition4">
      <property name="a_track">1</property>
      <property name="b_track">3</property>
      <property name="version">0,9</property>
      <property name="mlt_service">frei0r.cairoblend</property>
      <property name="disable">0</property>
    </transition>
    <transition id="transition5">
      <property name="a_track">0</property>
      <property name="b_track">5</property>
      <property name="mlt_service">mix</property>
      <property name="always_active">1</property>
      <property name="sum">1</property>
    </transition>
    <transition id="transition6">
      <property name="a_track">1</property>
      <property name="b_track">5</property>
      <property name="version">0,9</property>
      <property name="mlt_service">frei0r.cairoblend</property>
      <property name="disable">0</property>
    </transition>
    <transition id="transition7">
      <property name="a_track">0</property>
      <property name="b_track">4</property>
      <property name="mlt_service">mix</property>
      <property name="always_active">1</property>
      <property name="sum">1</property>
    </transition>
    <transition id="transition8">
      <property name="a_track">1</property>
      <property name="b_track">4</property>
      <property name="version">0,9</property>
      <property name="mlt_service">frei0r.cairoblend</property>
    </transition>
  </tractor>
</mlt>
