#define 5d0f1a7c012f4707a641c9494853ef02_width 14
#define 5d0f1a7c012f4707a641c9494853ef02_height 14
static char 5d0f1a7c012f4707a641c9494853ef02_bits[] = {
  0x07, 0x38, 0x0F, 0x3C, 0x1F, 0x3E, 0x3E, 0x1F, 0xFC, 0x0F, 0xF8, 0x07, 
  0xF0, 0x03, 0xF0, 0x03, 0xF8, 0x07, 0xFC, 0x0F, 0x3E, 0x1F, 0x1F, 0x3E, 
  0x0F, 0x3C, 0x07, 0x38, };
